<?xml version="1.0" standalone="no"?>
<!DOCTYPE svg PUBLIC "-//W3C//DTD SVG 20010904//EN" "http://www.w3.org/TR/2001/REC-SVG-20010904/DTD/svg10.dtd">
<svg version="1.0" xmlns="http://www.w3.org/2000/svg"
     width="700pt" height="700pt" viewBox="0 0 700 700"
     preserveAspectRatio="xMidYMid meet">
  <g transform="translate(0.000000,700.000000) scale(0.100000,-0.100000)" fill="#000000" stroke="none">
    <path d="M3330 6994 c-19 -2 -84 -9 -145 -15 -700 -67 -1431 -397 -1980 -892
    -521 -470 -880 -1089 -1027 -1772 -49 -228 -61 -351 -61 -615 0 -264 12 -387
    61 -615 147 -683 506 -1302 1027 -1772 470 -424 1029 -705 1665 -837 228 -47
    351 -59 615 -59 264 0 387 12 615 59 683 147 1302 506 1772 1027 424 470 705
    1029 837 1665 47 228 59 351 59 615 0 264 -12 387 -59 615 -132 636 -413
    1195 -837 1665 -470 521 -1089 880 -1772 1027 -203 44 -325 56 -570 59 -129
    2 -253 1 -275 -1z m-445 -1649 c83 -21 198 -76 266 -127 l57 -43 53 40 c29
    22 89 57 133 77 71 33 91 37 176 41 171 7 314 -48 436 -170 123 -122 178
    -265 171 -436 -4 -85 -8 -105 -41 -176 -20 -44 -55 -104 -77 -133 l-40 -53
    43 -57 c51 -68 106 -183 127 -266 32 -128 24 -297 -20 -417 -91 -246 -304
    -423 -559 -463 -85 -14 -116 -14 -201 0 -106 17 -188 47 -276 101 -33 20 -63
    37 -66 37 -3 0 -33 -17 -66 -37 -88 -54 -170 -84 -276 -101 -85 -14 -116 -14
    -201 0 -255 40 -468 217 -559 463 -44 120 -52 289 -20 417 21 83 76 198 127
    266 l43 57 -40 53 c-22 29 -57 89 -77 133 -33 71 -37 91 -41 176 -7 171 48
    314 170 436 122 122 265 177 436 170 85 -4 105 -8 176 -41 44 -20 104 -55
    133 -77 l53 -40 57 43 c92 69 262 126 374 126 39 0 106 -9 149 -19z"/>
    <path d="M2885 4595 c-16 -15 -25 -36 -25 -55 0 -19 9 -40 25 -55 24 -25 28
    -25 190 -25 162 0 166 0 190 25 16 15 25 36 25 55 0 19 -9 40 -25 55 -24 25
    -28 25 -190 25 -162 0 -166 0 -190 -25z"/>
    <path d="M3735 4595 c-16 -15 -25 -36 -25 -55 0 -19 9 -40 25 -55 24 -25 28
    -25 190 -25 162 0 166 0 190 25 16 15 25 36 25 55 0 19 -9 40 -25 55 -24 25
    -28 25 -190 25 -162 0 -166 0 -190 -25z"/>
    <path d="M2885 3795 c-16 -15 -25 -36 -25 -55 0 -19 9 -40 25 -55 24 -25 28
    -25 190 -25 162 0 166 0 190 25 16 15 25 36 25 55 0 19 -9 40 -25 55 -24 25
    -28 25 -190 25 -162 0 -166 0 -190 -25z"/>
    <path d="M3735 3795 c-16 -15 -25 -36 -25 -55 0 -19 9 -40 25 -55 24 -25 28
    -25 190 -25 162 0 166 0 190 25 16 15 25 36 25 55 0 19 -9 40 -25 55 -24 25
    -28 25 -190 25 -162 0 -166 0 -190 -25z"/>
  </g>
</svg> 